<svg xmlns="http://www.w3.org/2000/svg" version="1.1" xmlns:xlink="http://www.w3.org/1999/xlink" xmlns:svgjs="http://svgjs.dev/svgjs" width="1000" height="1000" viewBox="0 0 1000 1000"><rect width="1000" height="1000" fill="#000000"></rect><g transform="matrix(0.7,0,0,0.7,149.57575757575756,417.97705464384467)"><svg viewBox="0 0 396 93" data-background-color="#ffffff" preserveAspectRatio="xMidYMid meet" height="234" width="1000" xmlns="http://www.w3.org/2000/svg" xmlns:xlink="http://www.w3.org/1999/xlink"><g id="tight-bounds" transform="matrix(1,0,0,1,0.2400000000000091,0.06980413994170931)"><svg viewBox="0 0 395.52 92.86039172011661" height="92.86039172011661" width="395.52"><g><svg viewBox="0 0 395.52000000000004 92.86039172011662" height="92.86039172011661" width="395.52"><g><svg viewBox="0 0 395.52000000000004 92.86039172011662" height="92.86039172011662" width="395.52000000000004"><g id="textblocktransform"><svg viewBox="0 0 395.52000000000004 92.86039172011662" height="92.86039172011662" width="395.52000000000004" id="textblock"><g><svg viewBox="0 0 395.52000000000004 92.86039172011662" height="92.86039172011662" width="395.52000000000004"><rect width="395.52000000000004" height="92.86039172011662" x="0" y="0" opacity="1" fill="#ffffff" data-fill-palette-color="tertiary"></rect><g transform="matrix(1,0,0,1,23.607599999999998,23.607599999999998)"><svg width="348.30480000000006" viewBox="0.15000000596046448 -37.45000076293945 342.9700012207031 44.95000076293945" height="45.64519172011663" data-palette-color="#ffffff"><path d="M13.5-36.3L13.5-6.8Q13.5-2.35 11.78 0.83 10.05 4 7.05 5.68 4.05 7.35 0.15 7.5L0.15 7.5 0.15 7.5 0.15 2.3Q3.65 2.1 5.9-0.1 8.15-2.3 8.15-6.95L8.15-6.95 8.15-36.3 13.5-36.3ZM21.45-18.1L21.45-18.1Q21.45-21.85 22.87-25.2 24.3-28.55 26.85-31.15 29.4-33.75 32.75-35.23 36.1-36.7 39.95-36.7L39.95-36.7Q43.75-36.7 47.1-35.23 50.45-33.75 53.05-31.15 55.65-28.55 57.1-25.2 58.55-21.85 58.55-18.1L58.55-18.1Q58.55-14.25 57.1-10.9 55.65-7.55 53.07-5 50.5-2.45 47.12-1.03 43.75 0.4 39.95 0.4L39.95 0.4Q36.1 0.4 32.75-1 29.4-2.4 26.85-4.93 24.3-7.45 22.87-10.83 21.45-14.2 21.45-18.1ZM26.95-18.1L26.95-18.1Q26.95-15.3 27.97-12.88 29-10.45 30.8-8.63 32.6-6.8 34.97-5.78 37.35-4.75 40.1-4.75L40.1-4.75Q42.8-4.75 45.15-5.78 47.5-6.8 49.27-8.63 51.05-10.45 52.05-12.88 53.05-15.3 53.05-18.1L53.05-18.1Q53.05-20.9 52.02-23.33 51-25.75 49.22-27.6 47.45-29.45 45.07-30.5 42.7-31.55 40-31.55L40-31.55Q37.2-31.55 34.85-30.5 32.5-29.45 30.7-27.6 28.9-25.75 27.92-23.3 26.95-20.85 26.95-18.1ZM66.5-36.3L76.15-36.3Q81.65-36.3 84.82-34.05 88-31.8 88-27.15L88-27.15Q88-24.15 86.62-22 85.25-19.85 82.82-18.68 80.4-17.5 77.1-17.35L77.1-17.35 76.3-20.2Q80.15-20.1 83.17-18.88 86.2-17.65 87.97-15.48 89.75-13.3 89.75-10.3L89.75-10.3Q89.75-7.55 88.72-5.58 87.7-3.6 85.97-2.38 84.25-1.15 82.07-0.58 79.9 0 77.55 0L77.55 0 66.5 0 66.5-36.3ZM71.85-20.6L77.1-20.6Q79.9-20.6 81.2-22.2 82.5-23.8 82.5-26L82.5-26Q82.5-28.7 80.82-29.93 79.15-31.15 76.4-31.15L76.4-31.15 71.85-31.15 71.85-20.6ZM71.85-4.95L77.3-4.95Q79.25-4.95 80.82-5.53 82.4-6.1 83.32-7.28 84.25-8.45 84.25-10.25L84.25-10.25Q84.25-12.25 83.17-13.38 82.1-14.5 80.42-14.98 78.75-15.45 76.95-15.45L76.95-15.45 71.85-15.45 71.85-4.95ZM113.59 0L113.59-36.3 118.94-36.3 118.94 0 113.59 0ZM160.94 1.25L160.79 1.25 132.84-26.5 134.39-26 134.54 0 129.14 0 129.14-37.45 129.39-37.45 156.99-9.65 155.74-10 155.64-36.3 160.94-36.3 160.94 1.25ZM192.14-33.45L190.09-29.35Q188.19-30.35 185.99-31.05 183.79-31.75 181.74-31.75L181.74-31.75Q178.94-31.75 177.29-30.48 175.64-29.2 175.64-27L175.64-27Q175.64-25.45 176.74-24.3 177.84-23.15 179.59-22.3 181.34-21.45 183.29-20.7L183.29-20.7Q184.94-20.1 186.56-19.28 188.19-18.45 189.51-17.25 190.84-16.05 191.61-14.28 192.39-12.5 192.39-9.95L192.39-9.95Q192.39-7.05 190.96-4.7 189.54-2.35 186.86-0.98 184.19 0.4 180.39 0.4L180.39 0.4Q178.09 0.4 175.91-0.13 173.74-0.65 171.81-1.53 169.89-2.4 168.34-3.45L168.34-3.45 170.74-7.6Q171.94-6.75 173.49-5.98 175.04-5.2 176.71-4.75 178.39-4.3 179.89-4.3L179.89-4.3Q181.54-4.3 183.14-4.88 184.74-5.45 185.79-6.68 186.84-7.9 186.84-9.9L186.84-9.9Q186.84-11.6 185.91-12.78 184.99-13.95 183.46-14.8 181.94-15.65 180.19-16.3L180.19-16.3Q178.49-16.95 176.74-17.75 174.99-18.55 173.49-19.68 171.99-20.8 171.06-22.48 170.14-24.15 170.14-26.6L170.14-26.6Q170.14-29.5 171.51-31.68 172.89-33.85 175.34-35.1 177.79-36.35 180.99-36.5L180.99-36.5Q184.64-36.5 187.34-35.6 190.04-34.7 192.14-33.45L192.14-33.45ZM200.28 0L200.28-36.3 205.63-36.3 205.63 0 200.28 0ZM244.48-18L244.48-3.2Q243.73-2.55 242.38-1.9 241.03-1.25 239.36-0.75 237.68-0.25 235.93 0.08 234.18 0.4 232.63 0.4L232.63 0.4Q228.23 0.4 224.73-0.95 221.23-2.3 218.73-4.7 216.23-7.1 214.91-10.33 213.58-13.55 213.58-17.35L213.58-17.35Q213.58-22 215.08-25.6 216.58-29.2 219.16-31.68 221.73-34.15 225.11-35.43 228.48-36.7 232.18-36.7L232.18-36.7Q235.43-36.7 238.21-35.95 240.98-35.2 242.98-34L242.98-34 241.23-29.1Q240.23-29.65 238.76-30.18 237.28-30.7 235.73-31 234.18-31.3 232.88-31.3L232.88-31.3Q229.68-31.3 227.16-30.38 224.63-29.45 222.83-27.7 221.03-25.95 220.06-23.45 219.08-20.95 219.08-17.8L219.08-17.8Q219.08-14.95 220.08-12.58 221.08-10.2 222.88-8.47 224.68-6.75 227.18-5.83 229.68-4.9 232.73-4.9L232.73-4.9Q234.48-4.9 236.18-5.25 237.88-5.6 239.08-6.25L239.08-6.25 239.08-12.85 232.08-12.85 232.08-18 244.48-18ZM277.28-36.3L282.63-36.3 282.63 0 277.28 0 277.28-15.65 258.88-15.65 258.88 0 253.53 0 253.53-36.3 258.88-36.3 258.88-20.75 277.28-20.75 277.28-36.3ZM290.18-31.15L290.18-36.3 314.38-36.3 314.38-31.15 304.83-31.15 304.83 0 299.48 0 299.48-31.15 290.18-31.15ZM342.87-33.45L340.82-29.35Q338.92-30.35 336.72-31.05 334.52-31.75 332.47-31.75L332.47-31.75Q329.67-31.75 328.02-30.48 326.37-29.2 326.37-27L326.37-27Q326.37-25.45 327.47-24.3 328.57-23.15 330.32-22.3 332.07-21.45 334.02-20.7L334.02-20.7Q335.67-20.1 337.3-19.28 338.92-18.45 340.25-17.25 341.57-16.05 342.35-14.28 343.12-12.5 343.12-9.95L343.12-9.95Q343.12-7.05 341.7-4.7 340.27-2.35 337.6-0.98 334.92 0.4 331.12 0.4L331.12 0.4Q328.82 0.4 326.65-0.13 324.47-0.65 322.55-1.53 320.62-2.4 319.07-3.45L319.07-3.45 321.47-7.6Q322.67-6.75 324.22-5.98 325.77-5.2 327.45-4.75 329.12-4.3 330.62-4.3L330.62-4.3Q332.27-4.3 333.87-4.88 335.47-5.45 336.52-6.68 337.57-7.9 337.57-9.9L337.57-9.9Q337.57-11.6 336.65-12.78 335.72-13.95 334.2-14.8 332.67-15.65 330.92-16.3L330.92-16.3Q329.22-16.95 327.47-17.75 325.72-18.55 324.22-19.68 322.72-20.8 321.8-22.48 320.87-24.15 320.87-26.6L320.87-26.6Q320.87-29.5 322.25-31.68 323.62-33.85 326.07-35.1 328.52-36.35 331.72-36.5L331.72-36.5Q335.37-36.5 338.07-35.6 340.77-34.7 342.87-33.45L342.87-33.45Z" opacity="1" transform="matrix(1,0,0,1,0,0)" fill="#000000" class="undefined-text-0" data-fill-palette-color="quaternary" id="text-0"></path></svg></g></svg></g></svg></g></svg></g></svg></g><defs></defs></svg><rect width="395.52" height="92.86039172011661" fill="none" stroke="none" visibility="hidden"></rect></g></svg></g></svg>